<?xml version="1.0" encoding="UTF-8" standalone="no"?>
<!-- Created with Inkscape (http://www.inkscape.org/) -->

<svg
   xmlns:dc="http://purl.org/dc/elements/1.1/"
   xmlns:cc="http://creativecommons.org/ns#"
   xmlns:rdf="http://www.w3.org/1999/02/22-rdf-syntax-ns#"
   xmlns:svg="http://www.w3.org/2000/svg"
   xmlns="http://www.w3.org/2000/svg"
   xmlns:sodipodi="http://sodipodi.sourceforge.net/DTD/sodipodi-0.dtd"
   xmlns:inkscape="http://www.inkscape.org/namespaces/inkscape"
   id="svg2"
   version="1.1"
   inkscape:version="0.91 r13725"
   xml:space="preserve"
   width="1280"
   height="1280"
   viewBox="0 0 1280 1280"
   sodipodi:docname="CCleaner.svg"
   inkscape:export-filename="/Users/sebastienfulmer/Desktop/CCleaner.png"
   inkscape:export-xdpi="90"
   inkscape:export-ydpi="90"><metadata
     id="metadata8"><rdf:RDF><cc:Work
         rdf:about=""><dc:format>image/svg+xml</dc:format><dc:type
           rdf:resource="http://purl.org/dc/dcmitype/StillImage" /><dc:title></dc:title></cc:Work></rdf:RDF></metadata><defs
     id="defs6"><clipPath
       clipPathUnits="userSpaceOnUse"
       id="clipPath16"><path
         d="M 191,933 C 135.771,933 91,888.229 91,833 l 0,0 0,-643 C 91,134.771 135.771,90 191,90 l 0,0 643,0 c 55.229,0 100,44.771 100,100 l 0,0 0,643 c 0,55.229 -44.771,100 -100,100 l 0,0 -643,0 z"
         id="path18"
         inkscape:connector-curvature="0" /></clipPath><clipPath
       clipPathUnits="userSpaceOnUse"
       id="clipPath28"><path
         d="m 288,805 c -38.66,0 -70,-31.34 -70,-70 l 0,0 0,-447 c 0,-38.66 31.34,-70 70,-70 l 0,0 447,0 c 38.66,0 70,31.34 70,70 l 0,0 0,447 c 0,38.66 -31.34,70 -70,70 l 0,0 -447,0 z"
         id="path30"
         inkscape:connector-curvature="0" /></clipPath></defs><sodipodi:namedview
     pagecolor="#ffffff"
     bordercolor="#666666"
     borderopacity="1"
     objecttolerance="10"
     gridtolerance="10"
     guidetolerance="10"
     inkscape:pageopacity="0"
     inkscape:pageshadow="2"
     inkscape:window-width="1366"
     inkscape:window-height="719"
     id="namedview4"
     showgrid="false"
     inkscape:snap-smooth-nodes="true"
     inkscape:object-nodes="true"
     inkscape:object-paths="true"
     inkscape:zoom="0.26074563"
     inkscape:cx="55.867113"
     inkscape:cy="693.67389"
     inkscape:window-x="0"
     inkscape:window-y="1"
     inkscape:window-maximized="1"
     inkscape:current-layer="g10"
     showguides="false"><inkscape:grid
       type="xygrid"
       id="grid4154" /></sodipodi:namedview><g
     id="g10"
     inkscape:groupmode="layer"
     inkscape:label="template"
     transform="matrix(1.25,0,0,-1.25,0,1280)"><g
       id="g12"
       style="fill:#e6e6e6;fill-opacity:1"><g
         id="g14"
         clip-path="url(#clipPath16)"
         style="fill:#e6e6e6;fill-opacity:1"><g
           id="g20"
           transform="translate(933,190)"
           style="fill:#e6e6e6;fill-opacity:1"><path
             d="m 0,0 c 0,-55.229 -44.772,-100 -100,-100 l -643,0 c -55.229,0 -100,44.771 -100,100 l 0,643 c 0,55.229 44.771,100 100,100 l 643,0 C -44.772,743 0,698.229 0,643 L 0,0 Z"
             style="fill:#e6e6e6;fill-opacity:1;fill-rule:nonzero;stroke:none"
             id="path22"
             inkscape:connector-curvature="0" /></g></g></g><path
       style="opacity:1;fill:#ec1400;fill-opacity:1;stroke:none;stroke-width:2.4000001;stroke-miterlimit:4;stroke-dasharray:none;stroke-opacity:1"
       d="m 531.74863,752 a 240,240.00004 0 0 1 -240,-240 240,240.00004 0 0 1 240,-240 240,240.00004 0 0 1 200.50273,108.30162 l -88.12093,88.54486 0,0.18757 A 114.78261,93.913046 0 0 0 542.18342,418.08695 114.78261,93.913046 0 0 0 427.40081,512 114.78261,93.913046 0 0 0 542.18342,605.91305 114.78261,93.913046 0 0 0 644.28941,554.86823 l 0,0.0326 84.17934,94.4022 A 240,240.00004 0 0 1 531.74863,752 Z"
       id="path4194"
       inkscape:connector-curvature="0" /><g
       id="g4218"
       transform="matrix(2.4589877,0,0,2.4589877,1128.8068,-992.252)"><path
         sodipodi:nodetypes="ccccc"
         inkscape:connector-curvature="0"
         id="path4208"
         d="m -285.78228,626.17979 31.68058,65.61682 c 6.84098,3.29895 9.26823,-0.33798 11.11865,-4.88135 l -27.57723,-66.92924 z"
         style="fill:#0061aa;fill-opacity:1;fill-rule:evenodd;stroke:none;stroke-width:0.80000001px;stroke-linecap:butt;stroke-linejoin:miter;stroke-opacity:1" /><path
         inkscape:connector-curvature="0"
         id="path4210"
         d="m -317.83051,616.13559 12.74577,17.89831 39.32203,-16 -11.9322,-27.11864 z"
         style="fill:#0090d7;fill-opacity:1;fill-rule:evenodd;stroke:none;stroke-width:0.80000001px;stroke-linecap:butt;stroke-linejoin:miter;stroke-opacity:1" /><path
         inkscape:connector-curvature="0"
         id="path4212"
         d="m -265.76271,618.0339 12.74576,-5.9661 -3.25423,-24.94915 -21.42373,3.79661 z"
         style="fill:#005caa;fill-opacity:1;fill-rule:evenodd;stroke:none;stroke-width:0.80000001px;stroke-linecap:butt;stroke-linejoin:miter;stroke-opacity:1" /><path
         sodipodi:nodetypes="ccccc"
         inkscape:connector-curvature="0"
         id="path4214"
         d="m -374.69469,579.10847 c 24.45258,5.3451 44.78742,16.65728 57.99138,36.31881 l 39.0084,-24.51202 c -13.62534,-21.85473 -27.35989,-43.65486 -50.97791,-60.51326 -16.55994,11.24737 -34.74921,15.82929 -46.02187,48.70647 z"
         style="fill:#f6cf92;fill-opacity:1;fill-rule:evenodd;stroke:none;stroke-width:0.80000001px;stroke-linecap:butt;stroke-linejoin:miter;stroke-opacity:1" /><path
         sodipodi:nodetypes="ccccc"
         inkscape:connector-curvature="0"
         id="path4216"
         d="m -277.69491,590.91526 c -11.02137,-16.45415 -23.84505,-35.10267 -50.97791,-60.51326 l 35.66695,0.38351 c 17.95215,10.84209 28.64191,30.98911 35.04124,56.63324 z"
         style="fill:#ebae4e;fill-opacity:1;fill-rule:evenodd;stroke:none;stroke-width:0.80000001px;stroke-linecap:butt;stroke-linejoin:miter;stroke-opacity:1" /></g></g></svg>