<?xml version="1.0" encoding="UTF-8" standalone="no"?>
<!-- Created with Inkscape (http://www.inkscape.org/) -->

<svg
   xmlns:dc="http://purl.org/dc/elements/1.1/"
   xmlns:cc="http://creativecommons.org/ns#"
   xmlns:rdf="http://www.w3.org/1999/02/22-rdf-syntax-ns#"
   xmlns:svg="http://www.w3.org/2000/svg"
   xmlns="http://www.w3.org/2000/svg"
   xmlns:sodipodi="http://sodipodi.sourceforge.net/DTD/sodipodi-0.dtd"
   xmlns:inkscape="http://www.inkscape.org/namespaces/inkscape"
   id="svg2"
   version="1.1"
   inkscape:version="0.91 r13725"
   xml:space="preserve"
   width="1280"
   height="1280"
   viewBox="0 0 1280 1280"
   sodipodi:docname="Discord.svg"><metadata
     id="metadata8"><rdf:RDF><cc:Work
         rdf:about=""><dc:format>image/svg+xml</dc:format><dc:type
           rdf:resource="http://purl.org/dc/dcmitype/StillImage" /><dc:title></dc:title></cc:Work></rdf:RDF></metadata><defs
     id="defs6"><clipPath
       clipPathUnits="userSpaceOnUse"
       id="clipPath16"><path
         d="m 0,1024 1024,0 L 1024,0 0,0 0,1024 Z"
         id="path18"
         inkscape:connector-curvature="0" /></clipPath></defs><sodipodi:namedview
     pagecolor="#ffffff"
     bordercolor="#666666"
     borderopacity="1"
     objecttolerance="10"
     gridtolerance="10"
     guidetolerance="10"
     inkscape:pageopacity="0"
     inkscape:pageshadow="2"
     inkscape:window-width="1366"
     inkscape:window-height="719"
     id="namedview4"
     showgrid="false"
     inkscape:zoom="0.26074563"
     inkscape:cx="638.6853"
     inkscape:cy="677.78991"
     inkscape:window-x="0"
     inkscape:window-y="1"
     inkscape:window-maximized="1"
     inkscape:current-layer="g10" /><g
     id="g10"
     inkscape:groupmode="layer"
     inkscape:label="activity monitor"
     transform="matrix(1.25,0,0,-1.25,0,1280)"><path
       d="m 933.5,190.5 c 0,-55.229 -44.771,-100 -100,-100 l -643,0 c -55.229,0 -100,44.771 -100,100 l 0,643 c 0,55.229 44.771,100 100,100 l 643,0 c 55.229,0 100,-44.771 100,-100 l 0,-643 z"
       style="fill:#7289da;fill-opacity:1;fill-rule:nonzero;stroke:none"
       id="path4171"
       inkscape:connector-curvature="0" /><path
       style="opacity:1;fill:#ffffff;fill-opacity:1;stroke:none;stroke-width:0.40000001;stroke-miterlimit:4;stroke-dasharray:none;stroke-opacity:1"
       d="m 443.85723,691.99644 c 0,0 -58.71414,1.2857 -120.42782,-44.99955 0,0 -61.71324,-111.85521 -61.71324,-249.85385 -1.1e-4,0 35.99943,-62.14307 130.71299,-65.14304 0,0 15.85774,19.28468 28.71476,35.57023 -54.42803,16.28556 -74.99926,50.57219 -74.99926,50.57219 0,0 4.28471,-3.00082 11.99913,-7.28649 0.42856,-0.42856 0.8567,-0.85629 1.71383,-1.28486 1.28571,-0.85713 2.57301,-1.28569 3.85872,-2.14283 10.71418,-5.99994 21.4275,-10.71377 31.28455,-14.57087 17.57126,-6.85707 38.5719,-13.71541 63.00023,-18.42965 32.14254,-5.99994 69.85602,-8.14319 110.99848,-0.42898 20.14266,3.42854 40.71388,9.42974 62.14224,18.42965 14.99985,5.57137 31.71397,13.71374 49.28523,25.28505 0,0 -21.42879,-35.1421 -77.57109,-50.99908 C 615.71299,350.42881 631.14184,332 631.14184,332 c 94.71335,2.99997 131.14199,65.14304 131.14199,65.14304 0,137.99864 -61.71528,249.85385 -61.71528,249.85385 -61.71368,46.28525 -120.42578,44.99955 -120.42578,44.99955 l -6.00154,-6.85751 c 72.85642,-22.28549 106.71483,-54.42677 106.71483,-54.42677 -44.57098,24.42833 -88.28527,36.42654 -128.99915,41.14078 -30.85684,3.42854 -60.42894,2.57266 -86.57132,-0.85588 -2.57141,0 -4.71307,-0.42941 -7.28447,-0.85798 -14.99985,-1.28569 -51.42891,-6.85622 -97.28561,-26.99888 -15.85698,-7.28564 -25.28504,-12.42804 -25.28504,-12.42804 0,0 35.57033,33.85514 112.71243,56.14063 l -4.28567,5.14365 z M 431.85809,532.1417 c 24.42833,0 44.14125,-21.42876 43.71268,-47.57137 0,-26.1426 -19.28435,-47.57137 -43.71268,-47.57137 -23.99976,0 -43.7146,21.42877 -43.7146,47.57137 0,26.14261 19.28627,47.57137 43.7146,47.57137 z m 156.42703,0 c 24.42833,0 43.71267,-21.42876 43.71267,-47.57137 0,-26.1426 -19.28434,-47.57137 -43.71267,-47.57137 -23.99977,0 -43.7146,21.42877 -43.7146,47.57137 -1.1e-4,26.14261 19.28627,47.57137 43.7146,47.57137 z"
       id="rect4904"
       inkscape:connector-curvature="0" /></g></svg>