<?xml version="1.0" encoding="UTF-8" standalone="no"?>
<!-- Created with Inkscape (http://www.inkscape.org/) -->

<svg
   xmlns:dc="http://purl.org/dc/elements/1.1/"
   xmlns:cc="http://creativecommons.org/ns#"
   xmlns:rdf="http://www.w3.org/1999/02/22-rdf-syntax-ns#"
   xmlns:svg="http://www.w3.org/2000/svg"
   xmlns="http://www.w3.org/2000/svg"
   xmlns:sodipodi="http://sodipodi.sourceforge.net/DTD/sodipodi-0.dtd"
   xmlns:inkscape="http://www.inkscape.org/namespaces/inkscape"
   id="svg2"
   version="1.1"
   inkscape:version="0.91 r13725"
   xml:space="preserve"
   width="1280"
   height="1280"
   viewBox="0 0 1280 1280"
   sodipodi:docname="OBS.svg"><metadata
     id="metadata8"><rdf:RDF><cc:Work
         rdf:about=""><dc:format>image/svg+xml</dc:format><dc:type
           rdf:resource="http://purl.org/dc/dcmitype/StillImage" /><dc:title></dc:title></cc:Work></rdf:RDF></metadata><defs
     id="defs6"><clipPath
       clipPathUnits="userSpaceOnUse"
       id="clipPath16"><path
         d="m 0,1024 1024,0 L 1024,0 0,0 0,1024 Z"
         id="path18"
         inkscape:connector-curvature="0" /></clipPath></defs><sodipodi:namedview
     pagecolor="#ffffff"
     bordercolor="#666666"
     borderopacity="1"
     objecttolerance="10"
     gridtolerance="10"
     guidetolerance="10"
     inkscape:pageopacity="0"
     inkscape:pageshadow="2"
     inkscape:window-width="1366"
     inkscape:window-height="719"
     id="namedview4"
     showgrid="false"
     inkscape:zoom="0.26074563"
     inkscape:cx="561.37932"
     inkscape:cy="894.73906"
     inkscape:window-x="0"
     inkscape:window-y="1"
     inkscape:window-maximized="1"
     inkscape:current-layer="g10"
     inkscape:snap-center="true"><inkscape:grid
       type="xygrid"
       id="grid4209" /></sodipodi:namedview><g
     id="g10"
     inkscape:groupmode="layer"
     inkscape:label="activity monitor"
     transform="matrix(1.25,0,0,-1.25,0,1280)"><path
       d="m 933.5,190.5 c 0,-55.229 -44.771,-100 -100,-100 l -643,0 c -55.229,0 -100,44.771 -100,100 l 0,643 c 0,55.229 44.771,100 100,100 l 643,0 c 55.229,0 100,-44.771 100,-100 l 0,-643 z"
       style="fill:#e6e6e6;fill-opacity:1;fill-rule:nonzero;stroke:none"
       id="path4171"
       inkscape:connector-curvature="0" /><g
       id="g4211"
       transform="matrix(0.78124999,0,0,0.78124999,881.13368,63.766187)"
       style="fill:#ffffff"><circle
         style="opacity:1;fill:#201d20;fill-opacity:1;stroke:none;stroke-width:3;stroke-miterlimit:4;stroke-dasharray:none;stroke-opacity:1"
         id="path4215"
         cx="-472.49112"
         cy="-575.07562"
         transform="scale(1,-1)"
         r="343.04001" /><path
         sodipodi:nodetypes="sscsssscssssssscsssscssssscssss"
         inkscape:connector-curvature="0"
         id="path4207"
         d="m -625.29113,326.13205 c -10.80973,1.31164 -19.99901,3.19854 -30,6.16012 -8.23854,2.43967 -24.70929,8.60449 -24.24073,9.07305 0.14506,0.14505 2.77857,-0.44348 5.85224,-1.30787 46.30827,-13.02301 98.84469,-1.96784 136.74466,28.775 70.15116,56.90363 75.58805,162.58245 11.6537,226.5168 -27.7845,27.7845 -67.88778,44.79014 -105.62563,44.79014 l -5.67883,0 -4.32015,9 c -19.99836,41.66186 -22.57771,94.5976 -6.78648,139.27817 14.77051,41.79247 43.57017,76.42013 82.49595,99.19015 10.74917,6.28782 11.93602,6.44821 3.50527,0.47369 -9.5528,-6.76967 -28.20466,-25.50268 -34.98978,-35.14201 -43.34735,-61.58177 -36.55654,-144.01044 16.21141,-196.77838 69.15076,-69.15076 184.35651,-56.3932 237.11646,26.25761 l 3.753,5.87923 6.55446,-0.53764 c 11.35334,-0.93127 22.87695,-2.83767 33.69421,-5.57415 68.11714,-17.23188 121.64101,-73.6195 135.21229,-142.44668 1.0411,-5.28 2.10477,-11.94 2.36369,-14.8 l 0.47076,-5.2 -1.92877,6.8 c -4.59162,16.18798 -11.3972,31.3987 -19.67976,43.98496 -6.4252,9.76381 -10.47488,14.76759 -19.03215,23.5161 -50.22732,51.34991 -128.71837,60.85418 -189.71453,22.97203 -65.66185,-40.77981 -90.35771,-124.47462 -57.43777,-194.65787 l 4.04111,-8.61539 -3.83324,-5.79992 c -14.17307,-21.44464 -35.32097,-41.93176 -57.57644,-55.77741 -15.66473,-9.74541 -39.93051,-19.46259 -57.80111,-23.14635 -19.22001,-3.96192 -42.91008,-5.08128 -61.02384,-2.88338 z"
         style="fill:#ffffff" /></g></g></svg>