<?xml version="1.0" encoding="UTF-8" standalone="no"?>
<!-- Created with Inkscape (http://www.inkscape.org/) -->

<svg
   xmlns:dc="http://purl.org/dc/elements/1.1/"
   xmlns:cc="http://creativecommons.org/ns#"
   xmlns:rdf="http://www.w3.org/1999/02/22-rdf-syntax-ns#"
   xmlns:svg="http://www.w3.org/2000/svg"
   xmlns="http://www.w3.org/2000/svg"
   xmlns:sodipodi="http://sodipodi.sourceforge.net/DTD/sodipodi-0.dtd"
   xmlns:inkscape="http://www.inkscape.org/namespaces/inkscape"
   id="svg2"
   version="1.1"
   inkscape:version="0.91 r13725"
   xml:space="preserve"
   width="1280"
   height="1280"
   viewBox="0 0 1280 1280"
   sodipodi:docname="Origin.svg"><metadata
     id="metadata8"><rdf:RDF><cc:Work
         rdf:about=""><dc:format>image/svg+xml</dc:format><dc:type
           rdf:resource="http://purl.org/dc/dcmitype/StillImage" /><dc:title></dc:title></cc:Work></rdf:RDF></metadata><defs
     id="defs6"><clipPath
       clipPathUnits="userSpaceOnUse"
       id="clipPath16"><path
         d="m 0,1024 1024,0 L 1024,0 0,0 0,1024 Z"
         id="path18"
         inkscape:connector-curvature="0" /></clipPath></defs><sodipodi:namedview
     pagecolor="#ffffff"
     bordercolor="#666666"
     borderopacity="1"
     objecttolerance="10"
     gridtolerance="10"
     guidetolerance="10"
     inkscape:pageopacity="0"
     inkscape:pageshadow="2"
     inkscape:window-width="1366"
     inkscape:window-height="719"
     id="namedview4"
     showgrid="false"
     inkscape:zoom="0.26074563"
     inkscape:cx="561.37932"
     inkscape:cy="894.73906"
     inkscape:window-x="0"
     inkscape:window-y="1"
     inkscape:window-maximized="1"
     inkscape:current-layer="g10"
     inkscape:snap-center="true" /><g
     id="g10"
     inkscape:groupmode="layer"
     inkscape:label="activity monitor"
     transform="matrix(1.25,0,0,-1.25,0,1280)"><path
       inkscape:connector-curvature="0"
       id="path22"
       style="fill:#e6e6e6;fill-opacity:1;fill-rule:nonzero;stroke:none"
       d="m 950.40875,189 c 0,-55.229 -44.771,-100 -100,-100 l -643,0 c -55.229,0 -100,44.771 -100,100 l 0,643 c 0,55.229 44.771,100 100,100 l 643,0 c 55.229,0 100,-44.771 100,-100 l 0,-643 z" /><path
       style="fill:#f27111;fill-opacity:1"
       d="m 514.68624,233.10238 c -2.2916,1.3973 -3.18111,4.3163 -2.54382,8.3478 0.33927,2.14619 1.41478,4.32355 4.22436,8.5522 7.71548,11.61243 14.23894,25.95977 17.57975,38.66395 2.03063,7.72197 2.17633,11.20447 0.53103,12.69344 -1.07425,0.9722 -2.60546,1.0541 -20.97917,1.12229 -20.13565,0.0747 -25.55666,0.48106 -38.9442,2.91919 -38.63387,7.03594 -74.63967,24.98456 -103.73746,51.71232 -53.85279,49.46647 -77.60967,123.1445 -62.93377,195.17876 4.79165,23.51905 12.49627,43.73492 26.14703,68.60615 36.60165,66.687 87.18348,120.16924 151.656,160.35213 11.71317,7.3003 18.18799,10.74939 20.17932,10.74939 3.77154,0 5.41792,-2.18839 6.07364,-8.07321 0.43905,-3.94032 -0.0847,-5.31432 -5.03529,-13.20823 -7.54208,-12.02626 -13.30926,-25.33587 -16.70015,-38.54089 -1.99001,-7.7496 -2.3919,-11.19407 -1.37912,-11.81999 0.31323,-0.1936 5.7721,-0.053 12.13081,0.31232 47.8843,2.75141 96.7422,-12.05581 135.29954,-41.00484 17.71227,-13.29844 34.66839,-30.92609 46.79494,-48.64818 39.24041,-57.34712 48.18732,-130.67821 23.78526,-194.95005 -5.58171,-14.70149 -18.56512,-39.4843 -30.65404,-58.5126 -27.96587,-44.0191 -64.42701,-83.35261 -106.00736,-114.35853 -14.14132,-10.54499 -35.95735,-24.75392 -45.28124,-29.49196 -4.02885,-2.04734 -7.49931,-2.25182 -10.20606,-0.60146 z m 9.53293,202.41581 c 30.56276,4.95913 55.96002,28.04927 63.50576,57.73681 1.13668,4.47208 1.27689,6.41227 1.251,17.31013 -0.0283,11.87886 -0.086,12.48464 -1.79533,18.83845 -4.11693,15.30295 -10.93356,26.87069 -22.15726,37.60062 -20.26844,19.37675 -48.50386,26.29753 -75.91218,18.60683 -6.87793,-1.92993 -18.85034,-7.93712 -24.87502,-12.48111 -15.22134,-11.48036 -25.85057,-28.21908 -30.02566,-47.28385 -1.58651,-7.24452 -1.45353,-25.06817 0.24092,-32.29044 3.59555,-15.32537 13.12095,-30.49578 25.49697,-40.60716 18.55624,-15.16071 40.90478,-21.22166 64.2708,-17.43028 z"
       id="path4207"
       inkscape:connector-curvature="0" /></g></svg>