<?xml version="1.0" encoding="UTF-8" standalone="no"?>
<!-- Created with Inkscape (http://www.inkscape.org/) -->

<svg
   xmlns:dc="http://purl.org/dc/elements/1.1/"
   xmlns:cc="http://creativecommons.org/ns#"
   xmlns:rdf="http://www.w3.org/1999/02/22-rdf-syntax-ns#"
   xmlns:svg="http://www.w3.org/2000/svg"
   xmlns="http://www.w3.org/2000/svg"
   xmlns:sodipodi="http://sodipodi.sourceforge.net/DTD/sodipodi-0.dtd"
   xmlns:inkscape="http://www.inkscape.org/namespaces/inkscape"
   id="svg2"
   version="1.1"
   inkscape:version="0.91 r13725"
   xml:space="preserve"
   width="1280"
   height="1280"
   viewBox="0 0 1280 1280"
   sodipodi:docname="Scribus.svg"
   inkscape:export-filename="/Users/sebastienfulmer/Desktop/scribus.png"
   inkscape:export-xdpi="90"
   inkscape:export-ydpi="90"><metadata
     id="metadata8"><rdf:RDF><cc:Work
         rdf:about=""><dc:format>image/svg+xml</dc:format><dc:type
           rdf:resource="http://purl.org/dc/dcmitype/StillImage" /><dc:title /></cc:Work></rdf:RDF></metadata><defs
     id="defs6"><clipPath
       clipPathUnits="userSpaceOnUse"
       id="clipPath16"><path
         d="M 191,933 C 135.771,933 91,888.229 91,833 l 0,0 0,-643 C 91,134.771 135.771,90 191,90 l 0,0 643,0 c 55.229,0 100,44.771 100,100 l 0,0 0,643 c 0,55.229 -44.771,100 -100,100 l 0,0 -643,0 z"
         id="path18"
         inkscape:connector-curvature="0" /></clipPath><clipPath
       clipPathUnits="userSpaceOnUse"
       id="clipPath28"><path
         d="m 288,805 c -38.66,0 -70,-31.34 -70,-70 l 0,0 0,-447 c 0,-38.66 31.34,-70 70,-70 l 0,0 447,0 c 38.66,0 70,31.34 70,70 l 0,0 0,447 c 0,38.66 -31.34,70 -70,70 l 0,0 -447,0 z"
         id="path30"
         inkscape:connector-curvature="0" /></clipPath></defs><sodipodi:namedview
     pagecolor="#ffffff"
     bordercolor="#666666"
     borderopacity="1"
     objecttolerance="10"
     gridtolerance="10"
     guidetolerance="10"
     inkscape:pageopacity="0"
     inkscape:pageshadow="2"
     inkscape:window-width="1366"
     inkscape:window-height="719"
     id="namedview4"
     showgrid="false"
     inkscape:snap-smooth-nodes="false"
     inkscape:object-nodes="false"
     inkscape:object-paths="true"
     inkscape:zoom="0.26074563"
     inkscape:cx="742.33505"
     inkscape:cy="787.26874"
     inkscape:window-x="0"
     inkscape:window-y="1"
     inkscape:window-maximized="1"
     inkscape:current-layer="g10"
     showguides="false"><inkscape:grid
       type="xygrid"
       id="grid4154" /></sodipodi:namedview><g
     id="g10"
     inkscape:groupmode="layer"
     inkscape:label="template"
     transform="matrix(1.25,0,0,-1.25,0,1280)"><g
       id="g12"
       style="fill:#00507a;fill-opacity:1"><g
         id="g14"
         clip-path="url(#clipPath16)"
         style="fill:#00507a;fill-opacity:1"><g
           id="g20"
           transform="translate(933,190)"
           style="fill:#00507a;fill-opacity:1"><path
             d="m 0,0 c 0,-55.229 -44.772,-100 -100,-100 l -643,0 c -55.229,0 -100,44.771 -100,100 l 0,643 c 0,55.229 44.771,100 100,100 l 643,0 C -44.772,743 0,698.229 0,643 L 0,0 Z"
             style="fill:#00507a;fill-opacity:1;fill-rule:nonzero;stroke:none"
             id="path22"
             inkscape:connector-curvature="0" /></g></g></g><path
       style="fill:#a7c9df;fill-opacity:1"
       d="m 237.5,113.75 c -69.03625,0 -125,55.96375 -125,125 l 0,233.55469 c 0.83062,6.7438 1.2874,12.70538 1.25195,17.69336 -0.71264,100.28512 154.31405,329.21855 307.35743,453.88672 43.79575,35.6757 81.8854,64.86523 84.64453,64.86523 2.75912,0 -8.69144,-30.45391 -25.44532,-67.67578 C 429.53822,828.27979 437.45242,691.04618 504.3418,524.33203 565.34255,372.29462 583.13044,245.9045 555.36719,161.78125 543.15859,124.78916 538.53853,113.63951 518.27344,113.75 l -45.38672,0 z"
       transform="matrix(0.8,0,0,-0.8,0,1024)"
       id="path4293"
       inkscape:connector-curvature="0"
       sodipodi:nodetypes="sscssssssccs" /><path
       style="fill:#cfb578;fill-opacity:1;fill-rule:evenodd;stroke:none;stroke-width:0.80000001px;stroke-linecap:butt;stroke-linejoin:miter;stroke-opacity:1"
       d="M 989.44727 113.75 L 741.19336 553.47852 L 600.2793 1010.5879 C 724.66863 855.67402 874.65907 752.24554 1026.457 697.83008 C 1015.4499 545.98825 1070.4067 405.13893 1166.25 271.10547 L 1166.25 238.75 C 1166.25 169.71375 1110.285 113.75 1041.25 113.75 L 989.44727 113.75 z "
       transform="matrix(0.8,0,0,-0.8,0,1024)"
       id="path4315" /><path
       style="fill:none;fill-rule:evenodd;stroke:#715d2e;stroke-width:2.4000001;stroke-linecap:butt;stroke-linejoin:miter;stroke-miterlimit:4;stroke-dasharray:none;stroke-opacity:1"
       d="M 481.99256,218.94024 644.44707,583.98321"
       id="path4160"
       inkscape:connector-curvature="0"
       sodipodi:nodetypes="cc" /></g></svg>