<?xml version="1.0" encoding="UTF-8" standalone="no"?>
<!-- Created with Inkscape (http://www.inkscape.org/) -->

<svg
   xmlns:dc="http://purl.org/dc/elements/1.1/"
   xmlns:cc="http://creativecommons.org/ns#"
   xmlns:rdf="http://www.w3.org/1999/02/22-rdf-syntax-ns#"
   xmlns:svg="http://www.w3.org/2000/svg"
   xmlns="http://www.w3.org/2000/svg"
   xmlns:sodipodi="http://sodipodi.sourceforge.net/DTD/sodipodi-0.dtd"
   xmlns:inkscape="http://www.inkscape.org/namespaces/inkscape"
   width="1280"
   height="1280"
   viewBox="0 0 1280 1280"
   id="svg5663"
   version="1.1"
   inkscape:version="0.91 r13725"
   sodipodi:docname="Self Control.svg"
   inkscape:export-filename="/Users/sebastienfulmer/Desktop/Franz.png"
   inkscape:export-xdpi="90"
   inkscape:export-ydpi="90">
  <defs
     id="defs5665" />
  <sodipodi:namedview
     id="base"
     pagecolor="#ffffff"
     bordercolor="#666666"
     borderopacity="1.0"
     inkscape:pageopacity="0.0"
     inkscape:pageshadow="2"
     inkscape:zoom="0.24748737"
     inkscape:cx="-106.73512"
     inkscape:cy="520"
     inkscape:document-units="px"
     inkscape:current-layer="layer1"
     showgrid="false"
     units="px"
     inkscape:window-width="1366"
     inkscape:window-height="719"
     inkscape:window-x="0"
     inkscape:window-y="1"
     inkscape:window-maximized="1" />
  <metadata
     id="metadata5668">
    <rdf:RDF>
      <cc:Work
         rdf:about="">
        <dc:format>image/svg+xml</dc:format>
        <dc:type
           rdf:resource="http://purl.org/dc/dcmitype/StillImage" />
        <dc:title></dc:title>
      </cc:Work>
    </rdf:RDF>
  </metadata>
  <g
     inkscape:label="Layer 1"
     inkscape:groupmode="layer"
     id="layer1"
     transform="translate(0,227.63784)">
    <path
       inkscape:connector-curvature="0"
       id="path22"
       style="fill:#e6e6e6;fill-opacity:1;fill-rule:nonzero;stroke:none"
       d="m 1166.875,814.23716 c 0,69.03625 -55.9637,125 -125,125 l -803.75,0 c -69.03625,0 -125,-55.96375 -125,-125 l 0,-803.750001 c 0,-69.036249 55.96375,-124.999999 125,-124.999999 l 803.75,0 c 69.0363,0 125,55.96375 125,124.999999 l 0,803.750001 z" />
    <path
       style="fill:#2f2e2e;fill-opacity:1"
       d="m 588.62462,812.14095 c 28.09332,-0.12161 73.81876,-0.12161 101.61208,8e-5 27.79332,0.12168 4.80792,0.22121 -51.07873,0.22113 -55.88665,0 -78.62668,-0.0995 -50.53335,-0.22121 z m -49.20474,-34.09786 c -3.01155,-0.78699 -1.40874,-5.26433 10.43739,-29.1565 6.54224,-13.19483 16.34372,-33.3605 21.78114,-44.81268 12.40017,-26.11739 44.77045,-97.15365 44.42772,-97.4963 -0.14051,-0.1405 -11.30602,7.03672 -24.81234,15.94935 -29.05964,19.17612 -36.74035,23.85302 -49.76994,30.30547 -26.25431,13.00169 -49.08088,18.55912 -75.9826,18.49923 -57.81519,-0.12884 -106.59508,-19.1453 -143.33942,-55.87981 -29.36181,-29.35399 -46.91838,-65.64982 -53.69999,-111.01779 -1.79654,-12.01829 -2.47709,-41.30573 -1.26649,-54.50222 6.14079,-66.94129 38.00351,-125.73288 103.76135,-191.45541 24.05533,-24.04242 48.24883,-45.46383 91.21301,-80.76204 81.292,-66.78721 103.34865,-86.13215 134.51732,-117.97946 16.01324,-16.36195 21.99169,-23.0159 32.46107,-36.12881 7.15624,-8.963327 9.29034,-11.24396 10.52143,-11.24396 1.04394,0 5.37894,4.69841 15.62436,16.93436 23.39127,27.93575 56.23671,59.81796 97.96946,95.09635 6.87131,5.80854 29.17183,24.2947 49.55671,41.08018 64.2644,52.91724 88.17306,74.17591 115.84136,103.00151 67.22879,70.04096 97.06428,136.22682 94.61348,209.88726 -0.5635,16.93873 -1.4286,24.78352 -4.317,39.14564 -14.38877,71.5469 -61.64014,124.02829 -130.34522,144.77273 -30.71866,9.27502 -68.52186,11.78159 -95.32055,6.32036 -16.53853,-3.37036 -35.72581,-10.54742 -52.92382,-19.79629 -4.80483,-2.58394 -22.13927,-13.59303 -38.52097,-24.46444 -16.38179,-10.87149 -29.785,-19.46154 -29.785,-19.08899 0,0.8921 30.58607,68.54176 42.04433,92.99288 4.93743,10.53601 15.1128,31.67815 22.61202,46.98251 7.49922,15.30436 13.63492,28.84709 13.63492,30.095 0,1.64878 -0.51214,2.40604 -1.87399,2.77101 -2.15184,0.57669 -196.84893,0.52864 -199.05974,-0.0491 z M 665.81032,566.14908 c 7.93157,-2.15659 11.06722,-8.1263 12.12757,-23.08877 1.19694,-16.88926 3.2934,-23.47064 7.4764,-23.47064 3.15422,0 4.59795,5.6742 5.71002,22.44095 0.67397,10.16212 1.09641,12.46364 3.0033,16.36113 5.06711,10.35668 16.02173,9.33215 23.04129,-2.1551 4.48801,-7.34447 7.03422,-19.82443 8.16578,-40.02425 0.86454,-15.43213 1.85284,-19.89448 5.45124,-24.61219 2.86063,-3.75049 9.46642,-6.55748 18.313,-7.78174 13.61818,-1.88449 41.63438,-6.68608 46.67942,-8.00012 5.68012,-1.47954 8.82168,-4.06215 11.59669,-9.53338 5.25243,-10.35585 4.96059,-28.86383 -0.64832,-41.11516 -1.0895,-2.37989 -4.39522,-7.87636 -7.34597,-12.21444 -8.82859,-12.97928 -10.40999,-21.7629 -5.72184,-31.78118 4.56671,-9.75876 7.44458,-27.38821 9.22005,-56.47983 1.1159,-18.28526 0.5756,-40.3305 -1.29148,-52.68962 -1.38209,-9.14875 -8.4293,-31.15559 -13.78776,-43.05595 -11.11053,-24.675 -21.20652,-35.65885 -48.1752,-52.41193 -27.69629,-17.20509 -46.92238,-23.13749 -84.22526,-25.98879 -14.69511,-1.12323 -35.17244,-0.56836 -48.14381,1.30438 -33.89546,4.89379 -60.89254,17.5066 -82.90072,38.73036 -14.68944,14.16589 -23.99553,27.68305 -32.98403,47.90919 -10.97452,24.6954 -12.81195,33.9705 -12.86951,64.96377 -0.0308,16.65014 0.30301,23.96496 1.44464,31.64966 1.96853,13.25089 5.03638,27.63982 8.07084,37.85425 2.78733,9.38238 3.09017,15.21883 1.20485,23.21612 -1.70958,7.25168 -4.68265,13.2079 -9.70212,19.43664 -9.60151,11.91485 -13.49784,26.9023 -10.24275,39.39942 2.58728,9.93325 8.43763,17.34535 17.53067,22.21049 2.89094,1.54675 12.55525,4.08322 32.83153,8.61678 15.80401,3.53369 29.00975,6.8574 29.34607,7.3862 0.94799,1.49029 5.39318,15.46753 6.39806,20.1177 1.32204,6.11746 3.19503,18.76408 4.25571,28.73456 1.33812,12.57833 4.82558,19.35927 11.40413,22.17409 3.49229,1.4942 9.40311,1.46596 11.57503,-0.055 4.26038,-2.98406 8.3805,-17.58847 9.24795,-32.78047 0.42319,-7.41161 0.72445,-8.74372 2.21315,-9.78641 2.61817,-1.83385 5.30156,-1.47704 6.86781,0.91326 0.99838,1.52384 1.57257,5.09692 2.04098,12.70151 0.73044,11.85721 1.72549,17.16269 4.08714,21.79196 3.24867,6.36783 9.83464,9.67255 15.00686,7.53012 5.65113,-2.34074 10.07359,-13.77152 11.60085,-29.98473 0.94366,-10.0182 2.0479,-13.82632 4.36949,-15.06874 2.61709,-1.40066 5.68677,1.07926 5.68677,4.59403 0,4.78527 3.12966,21.41142 5.34572,28.39858 2.63516,8.30896 5.48305,12.60398 9.03839,13.63118 3.6333,1.04977 3.87042,1.0501 7.68737,0.0125 z m -40.87613,-93.5495 c -5.60207,-2.43936 -9.51347,-9.72161 -9.51347,-17.71224 0,-9.59859 4.73346,-18.24795 16.82838,-30.75031 l 7.6304,-7.8876 4.9426,4.82033 c 7.06512,6.89038 14.19479,16.01281 16.90733,21.63296 1.98352,4.10963 2.34241,5.91357 2.37206,11.92185 0.0283,5.74458 -0.31075,7.72726 -1.79845,10.51452 -4.91078,9.20055 -13.68207,11.11661 -20.04207,4.37823 l -2.22938,-2.36207 -2.51907,2.42887 c -4.23839,4.0868 -8.03027,4.99581 -12.57833,3.01546 z M 557.11871,439.2445 c -11.3714,-2.5294 -22.65017,-8.70749 -30.14714,-16.51355 -20.57154,-21.41958 -15.15695,-53.36908 11.25112,-66.38817 22.34391,-11.01559 49.6699,-5.91691 66.60506,12.42757 18.79931,20.36373 15.71747,48.13223 -7.02765,63.32082 -10.28189,6.86598 -27.98138,9.97822 -40.68139,7.15333 z m 142.83994,0.0433 c -8.41965,-1.64337 -14.42584,-4.14611 -20.95691,-8.73265 -30.89524,-21.69693 -19.38942,-65.20647 20.54046,-77.67452 5.21912,-1.62971 7.95914,-1.94055 16.65772,-1.88966 8.93562,0.0525 11.3554,0.37422 17.07416,2.27178 29.64366,9.83614 40.10138,40.54114 22.09947,64.88623 -6.96626,9.42078 -18.63558,17.19085 -30.42833,20.26062 -7.08486,1.84434 -18.06054,2.23005 -24.98657,0.8782 z"
       id="path6290"
       inkscape:connector-curvature="0" />
  </g>
</svg>
