<?xml version="1.0" encoding="UTF-8" standalone="no"?>
<!-- Created with Inkscape (http://www.inkscape.org/) -->

<svg
   xmlns:dc="http://purl.org/dc/elements/1.1/"
   xmlns:cc="http://creativecommons.org/ns#"
   xmlns:rdf="http://www.w3.org/1999/02/22-rdf-syntax-ns#"
   xmlns:svg="http://www.w3.org/2000/svg"
   xmlns="http://www.w3.org/2000/svg"
   xmlns:sodipodi="http://sodipodi.sourceforge.net/DTD/sodipodi-0.dtd"
   xmlns:inkscape="http://www.inkscape.org/namespaces/inkscape"
   id="svg2"
   version="1.1"
   inkscape:version="0.91 r13725"
   xml:space="preserve"
   width="1280"
   height="1280"
   viewBox="0 0 1280 1280"
   sodipodi:docname="spotify.svg"><metadata
     id="metadata8"><rdf:RDF><cc:Work
         rdf:about=""><dc:format>image/svg+xml</dc:format><dc:type
           rdf:resource="http://purl.org/dc/dcmitype/StillImage" /><dc:title></dc:title></cc:Work></rdf:RDF></metadata><defs
     id="defs6"><clipPath
       clipPathUnits="userSpaceOnUse"
       id="clipPath16"><path
         d="m 0,1024 1024,0 L 1024,0 0,0 0,1024 Z"
         id="path18"
         inkscape:connector-curvature="0" /></clipPath></defs><sodipodi:namedview
     pagecolor="#ffffff"
     bordercolor="#666666"
     borderopacity="1"
     objecttolerance="10"
     gridtolerance="10"
     guidetolerance="10"
     inkscape:pageopacity="0"
     inkscape:pageshadow="2"
     inkscape:window-width="1366"
     inkscape:window-height="719"
     id="namedview4"
     showgrid="false"
     inkscape:zoom="0.184375"
     inkscape:cx="640"
     inkscape:cy="640"
     inkscape:window-x="0"
     inkscape:window-y="1"
     inkscape:window-maximized="1"
     inkscape:current-layer="g10" /><g
     id="g10"
     inkscape:groupmode="layer"
     inkscape:label="spotify"
     transform="matrix(1.25,0,0,-1.25,0,1280)"><path
       inkscape:connector-curvature="0"
       id="path22"
       style="fill:#1ed760;fill-opacity:1;fill-rule:nonzero;stroke:none"
       d="M 933,190 C 933,134.771 888.229,90 833,90 L 190,90 C 134.771,90 90,134.771 90,190 l 0,643 c 0,55.229 44.771,100 100,100 l 643,0 c 55.229,0 100,-44.771 100,-100 l 0,-643 z" /><path
       inkscape:connector-curvature="0"
       id="path26"
       style="fill:#231f20;fill-opacity:1;fill-rule:nonzero;stroke:none"
       d="m 443,613 c -95,0 -149,-23 -167,-23 -18,0 -38,17 -38,37 0,20 16,35 42,41 26,6 106,19 174,19 126,0 257,-30 328,-77 20,-15 22,-43 10,-56 -12,-13 -28,-18 -53,-4 -25,14 -117,62 -296,63" /><path
       inkscape:connector-curvature="0"
       id="path30"
       style="fill:#231f20;fill-opacity:1;fill-rule:nonzero;stroke:none"
       d="m 266,501 c 0,14 8,26 32,32 24,6 80,19 141,19 142,0 247,-46 289,-72 12,-8 18,-18 17,-28 -1,-10 -5,-33 -31,-33 -10,0 -13,4 -24,10 -11,6 -104,61 -243,61 -98,-1 -132,-21 -151,-21 -31,0 -31,30 -30,32" /><path
       inkscape:connector-curvature="0"
       id="path34"
       style="fill:#231f20;fill-opacity:1;fill-rule:nonzero;stroke:none"
       d="m 282,383 c 0,9 3,21 32,26 29,5 80,14 135,14 94,0 175,-25 230,-58 11,-7 16,-15 16,-24 0,-9 -7,-26 -24,-26 -17,0 -71,58 -224,58 -86,0 -123,-17 -139,-17 -16,0 -26,9 -26,27" /></g></svg>