<?xml version="1.0" encoding="UTF-8" standalone="no"?>
<!-- Created with Inkscape (http://www.inkscape.org/) -->

<svg
   xmlns:dc="http://purl.org/dc/elements/1.1/"
   xmlns:cc="http://creativecommons.org/ns#"
   xmlns:rdf="http://www.w3.org/1999/02/22-rdf-syntax-ns#"
   xmlns:svg="http://www.w3.org/2000/svg"
   xmlns="http://www.w3.org/2000/svg"
   xmlns:sodipodi="http://sodipodi.sourceforge.net/DTD/sodipodi-0.dtd"
   xmlns:inkscape="http://www.inkscape.org/namespaces/inkscape"
   id="svg2"
   version="1.1"
   inkscape:version="0.91 r13725"
   xml:space="preserve"
   width="1280"
   height="1280"
   viewBox="0 0 1280 1280"
   sodipodi:docname="steam.svg"><metadata
     id="metadata8"><rdf:RDF><cc:Work
         rdf:about=""><dc:format>image/svg+xml</dc:format><dc:type
           rdf:resource="http://purl.org/dc/dcmitype/StillImage" /><dc:title></dc:title></cc:Work></rdf:RDF></metadata><defs
     id="defs6"><clipPath
       clipPathUnits="userSpaceOnUse"
       id="clipPath16"><path
         d="m 0,1024 1024,0 L 1024,0 0,0 0,1024 Z"
         id="path18"
         inkscape:connector-curvature="0" /></clipPath></defs><sodipodi:namedview
     pagecolor="#ffffff"
     bordercolor="#666666"
     borderopacity="1"
     objecttolerance="10"
     gridtolerance="10"
     guidetolerance="10"
     inkscape:pageopacity="0"
     inkscape:pageshadow="2"
     inkscape:window-width="1366"
     inkscape:window-height="719"
     id="namedview4"
     showgrid="false"
     inkscape:snap-smooth-nodes="true"
     inkscape:object-nodes="true"
     inkscape:zoom="0.13037281"
     inkscape:cx="640"
     inkscape:cy="825.17768"
     inkscape:window-x="0"
     inkscape:window-y="1"
     inkscape:window-maximized="1"
     inkscape:current-layer="g10"><inkscape:grid
       type="xygrid"
       id="grid4176" /></sodipodi:namedview><g
     id="g10"
     inkscape:groupmode="layer"
     inkscape:label="steam"
     transform="matrix(1.25,0,0,-1.25,0,1280)"><path
       inkscape:connector-curvature="0"
       id="path22"
       style="fill:#132c5d;fill-opacity:1;fill-rule:nonzero;stroke:none"
       d="M 933,190 C 933,134.771 888.229,90 833,90 L 190,90 C 134.771,90 90,134.771 90,190 l 0,643 c 0,55.229 44.771,100 100,100 l 643,0 c 55.229,0 100,-44.771 100,-100 l 0,-643 z" /><path
       inkscape:connector-curvature="0"
       id="path26"
       style="fill:#f5f5f4;fill-opacity:1;fill-rule:nonzero;stroke:none"
       d="m 298,305 c 9,9 18,1 25,-5 6.442,-5.522 26,-20 52,-20 51,0 71,40 71,73 0,33 -28,67 -71,67 -19,0 -27,-2 -30,11 -2,14 15,18 30,18 25,0 51,-11 66,-25 15,-14 31,-36 31,-73 0,-58 -39,-100 -98,-100 -42,0 -64.481,24.48 -71,31 -7,7 -12,15 -5,23 M 651,740 C 713.132,740 763.5,689.632 763.5,627.5 763.5,565.368 713.132,515 651,515 588.868,515 538.5,565.368 538.5,627.5 538.5,689.632 588.868,740 651,740 M 376,223 c 70.14,0 127,56.86 127,127 l 0,0.52 150.71,113.49 C 744.05,464.93 817,538.44 817,629 817,720.13 743.13,794 652,794 562.1,794 489,722.12 487.04,632.69 L 372.9,476.96 c -23.67,-0.56 -45.73,-7.61 -64.49,-19.42 L 90,551.004 90,396.5 251.14,326.67 C 262.09,267.67 313.83,223 376,223" /><ellipse
       style="opacity:1;fill:#f5f5f4;fill-opacity:1;stroke:none;stroke-width:0.31999999;stroke-miterlimit:4;stroke-dasharray:none;stroke-opacity:1"
       id="path4178"
       cx="652"
       cy="-627.19983"
       transform="scale(1,-1)"
       rx="80"
       ry="80.000008" /></g></svg>