<?xml version="1.0" encoding="UTF-8" standalone="no"?>
<!-- Created with Inkscape (http://www.inkscape.org/) -->

<svg
   xmlns:dc="http://purl.org/dc/elements/1.1/"
   xmlns:cc="http://creativecommons.org/ns#"
   xmlns:rdf="http://www.w3.org/1999/02/22-rdf-syntax-ns#"
   xmlns:svg="http://www.w3.org/2000/svg"
   xmlns="http://www.w3.org/2000/svg"
   xmlns:sodipodi="http://sodipodi.sourceforge.net/DTD/sodipodi-0.dtd"
   xmlns:inkscape="http://www.inkscape.org/namespaces/inkscape"
   width="1280"
   height="1280"
   viewBox="0 0 1280 1280"
   id="svg4918"
   version="1.1"
   inkscape:version="0.91 r13725"
   sodipodi:docname="Tidal.svg"
   inkscape:export-filename="/Users/sebastienfulmer/Desktop/tidal.png"
   inkscape:export-xdpi="90"
   inkscape:export-ydpi="90">
  <defs
     id="defs4920">
    <clipPath
       clipPathUnits="userSpaceOnUse"
       id="clipPath16">
      <path
         d="M 191,933 C 135.771,933 91,888.229 91,833 l 0,0 0,-643 C 91,134.771 135.771,90 191,90 l 0,0 643,0 c 55.229,0 100,44.771 100,100 l 0,0 0,643 c 0,55.229 -44.771,100 -100,100 l 0,0 -643,0 z"
         id="path18"
         inkscape:connector-curvature="0" />
    </clipPath>
  </defs>
  <sodipodi:namedview
     id="base"
     pagecolor="#ffffff"
     bordercolor="#666666"
     borderopacity="1.0"
     inkscape:pageopacity="0.0"
     inkscape:pageshadow="2"
     inkscape:zoom="0.35"
     inkscape:cx="145"
     inkscape:cy="520"
     inkscape:document-units="px"
     inkscape:current-layer="layer1"
     showgrid="false"
     inkscape:window-width="1366"
     inkscape:window-height="719"
     inkscape:window-x="0"
     inkscape:window-y="1"
     inkscape:window-maximized="1"
     units="px"
     inkscape:snap-smooth-nodes="true"
     inkscape:object-nodes="true" />
  <metadata
     id="metadata4923">
    <rdf:RDF>
      <cc:Work
         rdf:about="">
        <dc:format>image/svg+xml</dc:format>
        <dc:type
           rdf:resource="http://purl.org/dc/dcmitype/StillImage" />
        <dc:title></dc:title>
      </cc:Work>
    </rdf:RDF>
  </metadata>
  <g
     inkscape:label="Layer 1"
     inkscape:groupmode="layer"
     id="layer1"
     transform="translate(0,227.63784)">
    <g
       transform="matrix(1.25,0,0,-1.25,0,1051.7372)"
       id="g12"
       style="fill:#000000;fill-opacity:1">
      <g
         id="g14"
         clip-path="url(#clipPath16)"
         style="fill:#000000;fill-opacity:1">
        <g
           id="g20"
           transform="translate(933,190)"
           style="fill:#000000;fill-opacity:1">
          <path
             d="m 0,0 c 0,-55.229 -44.772,-100 -100,-100 l -643,0 c -55.229,0 -100,44.771 -100,100 l 0,643 c 0,55.229 44.771,100 100,100 l 643,0 C -44.772,743 0,698.229 0,643 L 0,0 Z"
             style="fill:#000000;fill-opacity:1;fill-rule:nonzero;stroke:none"
             id="path22"
             inkscape:connector-curvature="0" />
        </g>
      </g>
    </g>
    <g
       id="g5531"
       transform="translate(114.28572,-258.56419)">
      <rect
         transform="matrix(0.70710678,-0.70710678,0.70710678,0.70710678,0,0)"
         y="646.15271"
         x="-102.68044"
         height="200"
         width="200"
         id="rect5523"
         style="opacity:1;fill:#ffffff;fill-opacity:1;stroke:none;stroke-width:0.40000001;stroke-miterlimit:4;stroke-dasharray:none;stroke-opacity:1" />
      <rect
         style="opacity:1;fill:#ffffff;fill-opacity:1;stroke:none;stroke-width:0.40000001;stroke-miterlimit:4;stroke-dasharray:none;stroke-opacity:1"
         id="rect5525"
         width="200"
         height="200"
         x="97.319557"
         y="846.15271"
         transform="matrix(0.70710678,-0.70710678,0.70710678,0.70710678,0,0)" />
      <rect
         transform="matrix(0.70710678,-0.70710678,0.70710678,0.70710678,0,0)"
         y="846.15271"
         x="-302.68042"
         height="200"
         width="200"
         id="rect5527"
         style="opacity:1;fill:#ffffff;fill-opacity:1;stroke:none;stroke-width:0.40000001;stroke-miterlimit:4;stroke-dasharray:none;stroke-opacity:1" />
      <rect
         style="opacity:1;fill:#ffffff;fill-opacity:1;stroke:none;stroke-width:0.40000001;stroke-miterlimit:4;stroke-dasharray:none;stroke-opacity:1"
         id="rect5529"
         width="200"
         height="200"
         x="-302.68045"
         y="446.15271"
         transform="matrix(0.70710678,-0.70710678,0.70710678,0.70710678,0,0)" />
    </g>
  </g>
</svg>
