<?xml version="1.0" encoding="UTF-8" standalone="no"?>
<!-- Created with Inkscape (http://www.inkscape.org/) -->

<svg
   xmlns:dc="http://purl.org/dc/elements/1.1/"
   xmlns:cc="http://creativecommons.org/ns#"
   xmlns:rdf="http://www.w3.org/1999/02/22-rdf-syntax-ns#"
   xmlns:svg="http://www.w3.org/2000/svg"
   xmlns="http://www.w3.org/2000/svg"
   xmlns:sodipodi="http://sodipodi.sourceforge.net/DTD/sodipodi-0.dtd"
   xmlns:inkscape="http://www.inkscape.org/namespaces/inkscape"
   id="svg2"
   version="1.1"
   inkscape:version="0.91 r13725"
   xml:space="preserve"
   width="1280"
   height="1280"
   viewBox="0 0 1280 1280"
   sodipodi:docname="Ulysses.svg"
   inkscape:export-filename="/Users/sebastienfulmer/Desktop/Ulysses.png"
   inkscape:export-xdpi="90"
   inkscape:export-ydpi="90"><metadata
     id="metadata8"><rdf:RDF><cc:Work
         rdf:about=""><dc:format>image/svg+xml</dc:format><dc:type
           rdf:resource="http://purl.org/dc/dcmitype/StillImage" /><dc:title></dc:title></cc:Work></rdf:RDF></metadata><defs
     id="defs6"><clipPath
       clipPathUnits="userSpaceOnUse"
       id="clipPath16"><path
         d="M 191,933 C 135.771,933 91,888.229 91,833 l 0,0 0,-643 C 91,134.771 135.771,90 191,90 l 0,0 643,0 c 55.229,0 100,44.771 100,100 l 0,0 0,643 c 0,55.229 -44.771,100 -100,100 l 0,0 -643,0 z"
         id="path18"
         inkscape:connector-curvature="0" /></clipPath><clipPath
       clipPathUnits="userSpaceOnUse"
       id="clipPath28"><path
         d="m 288,805 c -38.66,0 -70,-31.34 -70,-70 l 0,0 0,-447 c 0,-38.66 31.34,-70 70,-70 l 0,0 447,0 c 38.66,0 70,31.34 70,70 l 0,0 0,447 c 0,38.66 -31.34,70 -70,70 l 0,0 -447,0 z"
         id="path30"
         inkscape:connector-curvature="0" /></clipPath></defs><sodipodi:namedview
     pagecolor="#ffffff"
     bordercolor="#666666"
     borderopacity="1"
     objecttolerance="10"
     gridtolerance="10"
     guidetolerance="10"
     inkscape:pageopacity="0"
     inkscape:pageshadow="2"
     inkscape:window-width="1366"
     inkscape:window-height="719"
     id="namedview4"
     showgrid="false"
     inkscape:snap-smooth-nodes="false"
     inkscape:object-nodes="true"
     inkscape:object-paths="true"
     inkscape:zoom="0.25"
     inkscape:cx="-80.541343"
     inkscape:cy="784.18156"
     inkscape:window-x="0"
     inkscape:window-y="1"
     inkscape:window-maximized="1"
     inkscape:current-layer="g10"
     showguides="false"
     inkscape:snap-nodes="true"><inkscape:grid
       type="xygrid"
       id="grid4154" /></sodipodi:namedview><g
     id="g10"
     inkscape:groupmode="layer"
     inkscape:label="template"
     transform="matrix(1.25,0,0,-1.25,0,1280)"><g
       id="g12"
       style="fill:#1b1b1b;fill-opacity:1"
       transform="translate(0,0.5)"><g
         id="g14"
         clip-path="url(#clipPath16)"
         style="fill:#1b1b1b;fill-opacity:1"><g
           id="g20"
           transform="translate(933,190)"
           style="fill:#1b1b1b;fill-opacity:1"><path
             d="m 0,0 c 0,-55.229 -44.772,-100 -100,-100 l -643,0 c -55.229,0 -100,44.771 -100,100 l 0,643 c 0,55.229 44.771,100 100,100 l 643,0 C -44.772,743 0,698.229 0,643 L 0,0 Z"
             style="fill:#1b1b1b;fill-opacity:1;fill-rule:nonzero;stroke:none"
             id="path22"
             inkscape:connector-curvature="0" /></g></g></g><path
       style="fill:#f7b60d;fill-opacity:1"
       d="m 368.01077,272.61922 c -17.9792,3.38178 -32.48321,18.82673 -43.34617,46.15823 -9.04095,22.74724 -18.76347,38.78233 -42.65249,70.34554 -14.94026,19.73975 -19.71135,28.49981 -21.24206,39.002 -1.66895,11.45071 2.84219,23.04934 14.2963,36.75732 4.90135,5.86581 10.98913,10.2938 20.44635,14.87178 29.12904,14.1006 80.92439,22.70981 153.38712,25.49537 26.07618,1.00239 30.84174,0.92644 31.29242,-0.49876 1.09539,-3.46394 2.90508,-6.91733 5.40737,-10.31879 l 2.80023,-3.80645 -2.35493,-1.67556 c -3.5674,-2.53824 -7.4262,-8.06673 -11.34417,-16.25275 -9.10193,-19.0171 -16.033,-44.05931 -27.49742,-99.3492 -6.7112,-32.36634 -9.48213,-41.54165 -17.17858,-56.883 -15.45525,-30.80694 -39.80517,-48.02306 -62.01397,-43.84573 z m 276.21615,-0.32835 c -19.25519,2.55293 -38.93503,20.17537 -51.3276,45.96161 -7.38255,15.36148 -9.84288,23.7064 -16.44174,55.76675 -14.66008,71.22551 -25.07171,102.72004 -37.71591,114.08826 l -3.3692,3.0292 2.42942,2.83823 c 2.51658,2.94005 5.74819,9.06914 5.74819,10.90203 0,1.28408 5.98533,1.35489 31.55009,0.37324 71.47621,-2.74459 123.45828,-11.29553 152.79815,-25.13498 11.69712,-5.51747 19.24422,-11.85014 26.31855,-22.08353 9.09242,-13.15264 11.41334,-24.60294 7.44014,-36.70592 -2.95905,-9.01373 -6.94845,-15.35929 -23.21505,-36.92602 -21.34702,-28.30252 -29.19239,-41.45367 -39.13938,-65.60918 -8.78272,-21.32817 -18.0043,-33.86932 -30.22343,-41.10324 -7.38301,-4.37085 -16.93829,-6.4457 -24.85223,-5.39645 z m -133.9693,55.06334 c -2.30708,0.92252 -6.08609,5.87547 -8.91196,11.68043 -11.59159,23.81174 -20.50072,72.54257 -18.23013,99.71453 1.70912,20.45286 7.56344,32.41767 18.28398,37.36803 3.72376,1.7195 4.97768,1.95018 10.60048,1.95018 5.57867,0 6.88145,-0.2354 10.40482,-1.88008 9.24451,-4.31526 14.62867,-12.9348 17.48498,-27.99181 1.59448,-8.40534 1.59785,-28.74839 0.007,-41.9549 -3.9645,-32.91011 -14.01812,-66.49151 -22.668,-75.71629 -3.09721,-3.30307 -4.75416,-4.05657 -6.97111,-3.17009 z m -2.81796,168.95097 c -2.89885,1.42869 -7.08967,6.24481 -9.17664,10.54585 -8.31724,17.14107 -1.4787,34.18536 13.73697,34.2379 10.85431,0.0374 18.23512,-9.10877 17.24421,-21.36892 -0.73326,-9.07237 -5.0127,-17.68614 -11.08935,-22.32095 -3.33644,-2.54479 -7.01028,-2.91985 -10.71519,-1.09388 z M 447.8929,518.7432 c -81.18422,3.20302 -115.59151,5.41902 -135.59824,8.7332 -30.34273,5.02636 -41.27417,12.52391 -47.5738,32.62949 -2.44292,7.79672 -3.00482,14.03141 -3.76824,41.81237 -0.74389,27.06958 -1.07122,30.42054 -6.34713,64.97582 -5.01147,32.82325 -5.34016,35.82194 -5.31307,48.47025 0.0431,20.148 3.87687,29.97384 13.54137,34.70643 7.59568,3.71964 20.24084,2.0511 37.31263,-4.92332 57.03384,-23.30032 111.10982,-75.81762 154.39214,-149.94197 7.33548,-12.56259 20.08116,-37.46925 25.10188,-49.05221 l 3.36734,-7.76858 -2.34257,-4.71934 c -1.89817,-3.82404 -2.41369,-5.75684 -2.71742,-10.18811 l -0.37484,-5.46878 -8.12724,0.10253 c -4.46998,0.0564 -14.16875,0.3409 -21.55281,0.63222 z m 98.33433,2.45383 c -0.0102,4.08005 -1.43353,9.41149 -3.63822,13.6279 l -1.73434,3.31685 3.78304,8.56131 c 24.22294,54.81837 62.3745,110.37405 100.05607,145.69999 21.0351,19.72015 41.86379,34.64745 63.57698,45.56378 18.87745,9.4907 32.17311,13.82322 42.70436,13.9156 5.67748,0.0495 6.79558,-0.14894 10.19108,-1.8117 9.6645,-4.73259 13.49821,-14.55843 13.54137,-34.70643 0.0271,-12.64831 -0.30161,-15.647 -5.31307,-48.47025 -5.26601,-34.49043 -5.6011,-37.90817 -6.33775,-64.64018 -0.76833,-27.88169 -1.35092,-34.40417 -3.75961,-42.09098 -8.19336,-26.14729 -25.09784,-32.96685 -91.89619,-37.07254 -28.68505,-1.76309 -104.65093,-5.07108 -116.63462,-5.07895 l -4.53113,-0.003 -0.008,3.18857 z m -51.90256,35.67245 c -0.5613,5.37025 -2.48643,10.27236 -7.97463,20.30645 -5.47798,10.01539 -7.54283,15.63445 -8.59879,23.39977 -1.78119,13.0986 0.69346,23.02066 11.0499,44.30438 8.07513,16.59536 10.26085,22.47744 10.91295,29.36844 l 0.39702,4.19549 4.60187,0 4.60189,0 0,-32.10892 0,-32.10889 -2.49573,-1.62284 c -7.37693,-4.79683 -7.49263,-13.67043 -0.24196,-18.55665 6.5871,-4.43904 16.16326,1.01998 16.16326,9.2141 0,3.78043 -1.88995,6.95635 -5.55961,9.34255 l -2.49573,1.62284 0,32.10889 0,32.10892 4.60188,0 4.60188,0 0.39702,-4.19549 c 0.65209,-6.891 2.83782,-12.77308 10.91294,-29.36844 10.35645,-21.28372 12.8311,-31.20578 11.0499,-44.30438 -1.05595,-7.76532 -3.12081,-13.38438 -8.59878,-23.39977 -5.48821,-10.03409 -7.41333,-14.9362 -7.97464,-20.30645 -0.22733,-2.175 -0.59686,-3.94495 -0.82116,-3.9332 -0.22431,0.0118 -1.00769,0.47471 -1.74084,1.02883 -2.54015,1.91984 -9.70143,3.64877 -15.11332,3.64877 -5.41188,0 -12.57316,-1.72893 -15.11331,-3.64877 -0.73316,-0.55412 -1.51653,-1.01708 -1.74084,-1.02883 -0.22431,-0.0118 -0.59383,1.7582 -0.82117,3.9332 z"
       id="path4547"
       inkscape:connector-curvature="0"
       sodipodi:nodetypes="ssssssssscssssssssscsssssssssscsssssscsccsssssssssssscssscsscsscscssscssssssccccssssscccccsssscccccsssssssssss" /></g></svg>